PathFileType	4	(X/Y/Z)	C:/Users/beibeiliu/ov580/test_trc\sequence.24_training_dense_left.trc
DataRate	CameraRate	NumFrames	NumMarkers	Units	OrigDataRate	OrigDataStartFrame	OrigNumFrames
120	120	18	19	mm	120	1	80
Frame#	Time	ThumbCMC			ThumbMCP			ThumbIP			ThumbTip			IndexMCP			IndexPIP			IndexTip			MiddleMCP			MiddlePIP			MiddleTip			RingMCP			RingPIP			RingTip			PinkyMCP			PinkyPIP			PinkyTip			BackHand1			BackHand2			BackHand3	
		X0	Y0	Z0	X1	Y1	Z1	X2	Y2	Z2	X3	Y3	Z3	X4	Y4	Z4	X5	Y5	Z5	X6	Y6	Z6	X7	Y7	Z7	X8	Y8	Z8	X9	Y9	Z9	X10	Y10	Z10	X11	Y11	Z11	X12	Y12	Z12	X13	Y13	Z13	X14	Y14	Z14	X15	Y15	Z15	X16	Y16	Z16	X17	Y17	Z17	X18	Y18	Z18	
0	0	-207.007	85.2521	139.988	-188.076	90.592	111.537	-182.076	99.9486	83.9105	-190.887	92.6843	54.3081	-233.007	104.44	73.1004	-213.602	107.616	50.4647	-180.472	97.0517	43.9595	-239.385	93.0348	61.675	-217.301	93.7858	37.7086	-184.082	81.3831	39.8362	-242.529	76.0106	56.4799	-223.608	77.2003	35.8547	-191.162	70.7726	37.898	-243.664	51.9774	58.9803	-227.104	56.5238	40.2786	-196.326	62.178	37.153	-257.954	55.9492	106.567	-254.115	41.1133	138.409	-248.051	76.6711	132.859	
1	0.00833333	-177.329	77.5741	136.364	-156.85	73.2514	109.109	-153.42	73.2726	82.5317	-162.217	67.6615	54.6669	-195.173	103.638	70.3552	-175.01	94.8499	46.1174	-151.912	71.2157	46.7914	-205.078	94.7682	58.531	-188.227	86.4983	37.3398	-161.194	59.9535	39.2472	-219.082	75.9489	56.6429	-196.782	71.1042	37.0298	-166.468	50.0331	42.3243	-225.414	57.4438	65.0334	-203.559	51.6547	40.255	-178.255	42.3401	38.6459	-236.661	66.3982	110.577	-237.357	59.2145	138.881	-216.366	87.2692	131.318	
2	0.0166667	-154.021	63.3025	137.587	-137.746	47.5499	113.259	-128.581	41.987	81.43	-138.586	36.9744	61.5999	-156.81	90.9639	65.9025	-146.825	74.0103	46.9642	-130.436	47.511	49.2661	-179.347	81.9739	59.1863	-162.479	65.8741	36.9805	-143.804	36.9791	41.6601	-191.523	70.5902	59.6952	-172.3	50.3483	38.3196	-154.499	25.3137	47.5127	-207.523	53.1111	63.8427	-189.214	36.8675	44.9093	-166.079	21.1067	48.8868	-215.077	71.3395	109.984	-215.39	65.968	139.167	-189.655	84.4029	131.955	
3	0.025	-135.939	47.3164	136.086	-128.361	22.8803	117.088	-119.289	10.1067	93.3641	-123.592	1.71074	72.3388	-137.615	62.4521	65.9191	-123.25	39.3658	50.5773	-124.184	12.2499	58.7844	-157.483	59.2854	61.0239	-145.176	33.0947	41.052	-136.36	2.69388	53.2992	-172.574	48.3511	58.5714	-160.407	21.8835	44.6483	-146.946	-0.324834	56.3694	-190.006	37.7142	69.9525	-175.633	16.27	52.6845	-157.889	-6.96843	60.5999	-194.712	63.606	106.836	-202.495	62.4393	137.143	-168.109	75.7436	127.569	
4	0.0333333	-131.993	31.3114	144.904	-120.084	1.32675	127.082	-108.89	-16.2395	110.756	-111.628	-29.4201	87.4549	-122.026	37.0172	73.2891	-112.906	11.2554	59.8551	-109.63	-17.1888	75.0797	-139.483	29.6109	60.681	-129.048	-0.573652	53.6545	-125.03	-25.2094	71.2741	-163.458	18.3762	64.2272	-146.353	-9.82509	57.4407	-138.367	-31.046	80.0291	-181.249	9.31242	72.6189	-164.467	-10.9385	65.7723	-148.693	-33.4549	82.1718	-183.792	47.7507	107.072	-186.403	53.3833	136.171	-156.53	58.8806	126.98	
5	0.0416667	-127.028	25.8691	149.003	-114.911	-3.79123	141.755	-101.806	-24.3909	125.359	-98.422	-41.6777	108.684	-111.71	21.4001	83.2343	-102.788	-10.777	75.6473	-98.1356	-31.6603	94.2752	-131.051	7.61896	70.8321	-116.351	-19.343	68.7182	-115.308	-42.1771	94.8985	-151.168	-2.84695	73.2861	-134.91	-32.1382	75.1183	-127.984	-46.2805	99.9223	-167.563	-9.13462	81.6585	-152.388	-30.9612	81.2949	-138.208	-46.5735	105.915	-174.913	35.6552	111.324	-185.274	43.0437	136.271	-149.726	51.1955	129.634	
6	0.05	-126.186	31.117	157.688	-106.951	3.02653	154.85	-94.0997	-14.6431	145.119	-85.4919	-31.8904	127.863	-106.656	14.6554	89.4844	-89.3477	-5.36043	88.1576	-85.8245	-29.0188	109.845	-120.565	0.546643	80.9211	-101.803	-20.7579	83.0448	-96.7784	-41.3279	115.113	-136.145	-7.98078	85.4306	-118.391	-35.2702	89.6158	-107.917	-44.7352	122.042	-155.473	-22.9429	91.3317	-133.224	-42.9102	100.131	-120.977	-47.5982	125.733	-170.993	24.4836	115.156	-188.712	33.3703	137.137	-156.383	47.2404	131.208	
7	0.0583333	-137.464	44.8627	162.441	-108.831	24.724	162.213	-83.1876	11.1141	150.372	-71.4673	-5.2408	136.925	-106.936	28.1053	93.5353	-80.893	10.0802	96.8459	-74.4796	-7.57088	118.479	-113.564	9.29359	86.8603	-90.5055	-7.71476	92.0128	-79.5945	-17.9433	128.251	-125.364	-5.05617	90.6976	-102.524	-26.828	100.258	-93.6194	-29.2269	130.313	-138.389	-24.5039	96.7676	-116.172	-34.4245	107.462	-102.517	-31.2613	138.69	-174.872	13.9671	114.4	-191.425	22.618	134.778	-164.083	48.2381	129.45	
8	0.0666667	-150.443	56.3281	155.482	-117.455	48.5778	156.004	-93.7046	42.9297	146.906	-75.8088	27.4957	130.904	-118.669	47.3882	90.6705	-85.5996	38.2678	93.8084	-71.4834	32.0455	121.593	-119.008	27.2801	85.6535	-86.1843	15.9554	92.8362	-74.0572	13.7509	124.222	-120.365	6.47303	89.4338	-92.459	-1.774	100.588	-82.5217	4.88831	132.62	-131.354	-13.6069	99.412	-103.446	-14.1265	107.642	-88.8981	-6.28764	136.794	-173.063	12.8564	112.26	-195.594	13.5854	135.268	-177.196	45.0169	126.55	
9	0.075	-170.14	63.786	147.449	-134.06	73.3905	147.296	-110.347	76.3332	137.686	-93.8218	59.1042	122.383	-135.782	65.3942	81.5829	-106.612	65.2936	81.3506	-86.3549	63.8697	107.989	-128.748	45.4991	77.0151	-97.671	48.9491	81.9196	-81.1494	50.0108	111.74	-124.493	27.1306	82.5676	-95.7217	25.0543	91.5863	-85.1581	36.4467	121.81	-130.317	6.17906	95.1319	-99.6459	11.7879	102.41	-87.8882	26.0466	124.826	-176.597	10.9637	108.023	-195.148	9.63259	128.457	-191.467	44.6196	120.675	
10	0.0833333	-185.892	66.1163	139.229	-155.025	80.3032	136.059	-131.336	87.5878	122.189	-111.118	74.862	105.266	-155.744	67.8622	73.0393	-130.152	80.9104	71.8005	-108.091	83.9973	97.8265	-143.534	51.6923	68.9624	-117.448	63.4818	71.8103	-96.5699	69.869	98.9406	-134.938	29.543	77.0126	-108.107	43.2509	80.6079	-96.3739	61.0825	108.269	-134.909	15.1832	89.3923	-107.234	29.0723	90.5331	-95.4165	47.5816	109.521	-180.063	8.14826	106.477	-194.828	4.58933	127.905	-202.243	35.1781	116.005	
11	0.0916667	-200.628	57.2759	136.78	-175.823	83.2044	127.161	-155.122	91.3592	108.958	-135.986	77.8497	93.572	-177.104	62.3096	65.1121	-152.477	79.7264	61.634	-133.105	88.77	80.631	-163.91	46.56	63.6455	-135.907	64.5531	61.2455	-117.076	82.1623	87.0864	-151.209	28.5722	71.2207	-128.333	48.9877	67.77	-112.976	67.7483	89.1847	-142.876	19.1794	80.4021	-123.314	33.3336	78.6908	-106.969	57.9053	94.1183	-185.921	2.04084	104.044	-197.781	-4.99111	130.728	-211.727	28.7171	114.757	
12	0.1	-212.546	46.0625	129.645	-190.824	67.8519	118.344	-175.755	83.1938	98.0734	-156.917	75.7898	78.193	-196.836	45.9006	59.2108	-177.631	65.6744	50.4596	-157.414	80.5952	64.121	-182.569	33.9993	57.308	-157.665	54.4743	51.0355	-139.829	74.0358	68.3639	-165.216	15.8942	65.0504	-147.515	41.9148	56.1276	-133.219	64.1892	71.9825	-154.537	5.36957	79.942	-137.823	23.5612	69.0928	-124.822	54.3162	73.694	-194	-4.82871	105.507	-202.973	-12.9549	136.723	-220.466	12.1044	119.077	
13	0.108333	-224.303	38.9836	132.612	-206.263	63.0791	112.032	-194.081	73.6868	88.8479	-176.753	69.5472	68.6412	-214.798	25.0226	60.1852	-199.51	42.9375	41.7344	-175.918	66.8799	49.6151	-199.847	15.198	52.2814	-180.599	36.5328	39.801	-162.141	59.781	50.2814	-183.302	2.67737	60.2089	-166.557	20.0284	46.9329	-152.356	48.0272	52.551	-170.367	-5.18127	72.8369	-151.627	12.0557	59.3392	-142.243	37.3668	55.7578	-203.479	-15.531	107.862	-210.63	-21.5416	137.194	-232.456	-0.250859	123.326	
14	0.116667	-235.785	35.4978	131.228	-219.26	58.1616	113.969	-208.761	71.1607	89.8852	-194.154	68.385	68.0171	-229.827	15.5062	56.9632	-216.897	29.4883	36.4909	-195.034	51.5393	33.2698	-217.288	3.46042	54.3162	-200.19	19.9472	32.5823	-174.63	47.5246	35.2005	-198.265	-8.2333	59.8247	-181.363	6.93698	39.8179	-168.018	32.2278	37.7703	-179.377	-17.9316	72.1047	-165.931	-6.97477	55.4522	-151.399	20.6638	42.1236	-211.928	-24.9275	111.579	-217.731	-23.4614	138.18	-239.858	-5.32632	122.397	
15	0.125	-241.245	35.0487	131.693	-224.699	57.3422	112.947	-215.724	72.5154	88.2092	-203.071	75.8007	71.9192	-240.972	14.2116	59.1077	-231.284	26.2786	34.117	-205.27	42.2818	20.8475	-224.151	-2.63807	55.8583	-209.62	14.6004	28.2453	-187.528	35.6491	22.49	-206.701	-13.2076	61.9096	-193.342	-0.41851	38.7295	-174.922	23.0588	30.0352	-188.045	-22.3271	73.9666	-177.021	-12.3515	53.2202	-163.424	8.60437	36.0946	-220.016	-23.1598	109.127	-224.819	-25.3994	139.187	-248.939	-5.35674	120.182	
16	0.133333	-243.346	39.7073	134.266	-224.007	63.7832	113.692	-213.425	76.1685	95.3991	-199.737	80.9702	72.6735	-242.12	18.2121	62.1193	-228.807	27.3321	33.9943	-211.513	37.9604	17.4348	-225.495	0.542154	58.2695	-210.146	10.9952	29.9112	-188.276	30.6682	18.5418	-212.079	-8.07895	61.2549	-194.124	-0.972387	37.1565	-174.65	22.4149	25.5724	-193.874	-19.7573	74.0003	-181.853	-14.1253	54.4269	-167.19	2.45378	36.8776	-225.079	-20.9167	113.717	-231.776	-22.6226	137.299	-250.72	-1.22594	119.861	
17	0.141667	-236.368	48.8055	134.933	-212.872	65.4439	121.98	-199.884	79.5495	101.868	-186.813	87.116	80.5661	-240.11	31.8817	64.0325	-224.022	36.4156	36.3337	-206.957	43.5095	19.4282	-225.374	10.6422	54.5187	-210.678	19.369	31.9007	-180.89	33.9633	17.4239	-212.706	-4.33011	61.4305	-197.3	1.54147	39.1448	-177.419	24.0644	26.3815	-201.127	-14.9923	76.5897	-185.761	-11.6139	52.0019	-171.942	-0.254764	36.5167	-230.521	-12.7779	110.494	-234.656	-17.5314	136.821	-250.234	8.14705	122.454	
